Coordinates
version=1
nRows=93
nColumns=8
inDegrees=yes

"Units are S.I. units (second, meters, Newtons, ...)"
Angles are in degrees.

endheader
time	force_vx	force_vy	force_vz	force_px	force_py	force_pz	moment_vz
       4.066000	      73.990000	     509.440000	     -17.290000	      -0.160000	       0.000000	       0.250000	       0.230000
       4.067000	      73.980000	     505.970000	     -17.290000	      -0.160000	       0.000000	       0.250000	       0.230000
       4.068000	      73.770000	     501.360000	     -15.540000	      -0.160000	       0.000000	       0.250000	       0.340000
       4.069000	      74.200000	     496.740000	     -15.550000	      -0.160000	       0.000000	       0.250000	       0.390000
       4.070000	      74.410000	     492.490000	     -16.210000	      -0.160000	       0.000000	       0.250000	       0.330000
       4.071000	      73.760000	     487.120000	     -15.110000	      -0.160000	       0.000000	       0.250000	       0.370000
       4.072000	      73.760000	     482.900000	     -14.010000	      -0.160000	       0.000000	       0.250000	       0.580000
       4.073000	      74.180000	     477.130000	     -14.460000	      -0.160000	       0.000000	       0.250000	       0.490000
       4.074000	      74.400000	     472.500000	     -14.030000	      -0.160000	       0.000000	       0.250000	       0.470000
       4.075000	      74.180000	     467.490000	     -12.940000	      -0.160000	       0.000000	       0.250000	       0.580000
       4.076000	      74.170000	     462.120000	     -12.720000	      -0.160000	       0.000000	       0.250000	       0.570000
       4.077000	      74.160000	     457.110000	     -12.940000	      -0.160000	       0.000000	       0.250000	       0.570000
       4.078000	      73.730000	     452.130000	     -11.840000	      -0.160000	       0.000000	       0.250000	       0.650000
       4.079000	      73.950000	     447.110000	     -10.970000	      -0.160000	       0.000000	       0.250000	       0.760000
       4.080000	      74.160000	     441.720000	     -11.420000	      -0.160000	       0.000000	       0.250000	       0.670000
       4.081000	      73.500000	     437.100000	     -10.750000	      -0.160000	       0.000000	       0.250000	       0.700000
       4.082000	      73.720000	     430.570000	      -9.880000	      -0.160000	       0.000000	       0.250000	       0.790000
       4.083000	      73.710000	     424.410000	      -9.670000	      -0.160000	       0.000000	       0.250000	       0.840000
       4.084000	      73.270000	     418.640000	      -9.440000	      -0.160000	       0.000000	       0.250000	       0.830000
       4.085000	      73.490000	     413.630000	      -8.580000	      -0.160000	       0.000000	       0.250000	       0.860000
       4.086000	      73.270000	     408.240000	      -8.140000	      -0.160000	       0.000000	       0.250000	       0.890000
       4.087000	      73.040000	     401.700000	      -8.130000	      -0.160000	       0.000000	       0.250000	       0.850000
       4.088000	      72.610000	     397.090000	      -7.250000	      -0.160000	       0.000000	       0.250000	       0.980000
       4.089000	      72.170000	     391.300000	      -6.590000	      -0.160000	       0.000000	       0.250000	       0.990000
       4.090000	      71.940000	     385.540000	      -6.810000	      -0.160000	       0.000000	       0.250000	       0.930000
       4.091000	      71.280000	     380.160000	      -6.360000	      -0.150000	       0.000000	       0.250000	       0.970000
       4.092000	      70.840000	     374.010000	      -5.480000	      -0.150000	       0.000000	       0.250000	       1.070000
       4.093000	      70.190000	     368.990000	      -5.030000	      -0.150000	       0.000000	       0.250000	       1.120000
       4.094000	      69.090000	     362.840000	      -4.800000	      -0.150000	       0.000000	       0.250000	       1.120000
       4.095000	      68.440000	     356.680000	      -4.130000	      -0.150000	       0.000000	       0.250000	       1.120000
       4.096000	      67.560000	     351.310000	      -3.900000	      -0.150000	       0.000000	       0.250000	       1.150000
       4.097000	      66.250000	     345.930000	      -3.440000	      -0.150000	       0.000000	       0.250000	       1.130000
       4.098000	      65.590000	     340.160000	      -2.990000	      -0.150000	       0.000000	       0.250000	       1.160000
       4.099000	      64.280000	     335.140000	      -2.310000	      -0.150000	       0.000000	       0.250000	       1.190000
       4.100000	      63.400000	     329.390000	      -2.300000	      -0.150000	       0.000000	       0.250000	       1.170000
       4.101000	      62.310000	     323.630000	      -1.630000	      -0.150000	       0.000000	       0.250000	       1.210000
       4.102000	      61.210000	     318.230000	      -1.610000	      -0.150000	       0.000000	       0.250000	       1.230000
       4.103000	      60.120000	     312.080000	      -0.940000	      -0.150000	       0.000000	       0.250000	       1.250000
       4.104000	      59.240000	     307.850000	      -0.700000	      -0.150000	       0.000000	       0.250000	       1.250000
       4.105000	      58.150000	     301.680000	      -0.460000	      -0.150000	       0.000000	       0.250000	       1.300000
       4.106000	      57.270000	     295.930000	      -0.010000	      -0.150000	       0.000000	       0.250000	       1.320000
       4.107000	      55.960000	     291.300000	       0.230000	      -0.150000	       0.000000	       0.250000	       1.450000
       4.108000	      55.090000	     285.910000	       0.680000	      -0.150000	       0.000000	       0.250000	       1.380000
       4.109000	      53.990000	     280.520000	       0.700000	      -0.150000	       0.000000	       0.250000	       1.400000
       4.110000	      53.110000	     275.520000	       0.930000	      -0.150000	       0.000000	       0.250000	       1.370000
       4.111000	      52.230000	     270.130000	       1.160000	      -0.150000	       0.000000	       0.250000	       1.390000
       4.112000	      51.360000	     265.130000	       1.400000	      -0.140000	       0.000000	       0.250000	       1.380000
       4.113000	      50.260000	     258.960000	       1.420000	      -0.140000	       0.000000	       0.250000	       1.370000
       4.114000	      49.380000	     253.200000	       1.430000	      -0.140000	       0.000000	       0.250000	       1.420000
       4.115000	      48.500000	     248.180000	       1.660000	      -0.140000	       0.000000	       0.250000	       1.370000
       4.116000	      47.840000	     242.400000	       1.670000	      -0.140000	       0.000000	       0.250000	       1.370000
       4.117000	      46.960000	     237.390000	       1.690000	      -0.140000	       0.000000	       0.250000	       1.340000
       4.118000	      45.870000	     232.380000	       1.920000	      -0.140000	       0.000000	       0.250000	       1.330000
       4.119000	      45.210000	     226.600000	       1.930000	      -0.140000	       0.000000	       0.250000	       1.320000
       4.120000	      44.540000	     221.210000	       1.730000	      -0.140000	       0.000000	       0.250000	       1.270000
       4.121000	      43.660000	     215.810000	       1.740000	      -0.140000	       0.000000	       0.250000	       1.250000
       4.122000	      42.790000	     210.410000	       2.190000	      -0.140000	       0.000000	       0.250000	       1.310000
       4.123000	      41.690000	     205.410000	       2.210000	      -0.140000	       0.000000	       0.250000	       1.350000
       4.124000	      40.810000	     200.000000	       2.220000	      -0.140000	       0.000000	       0.250000	       1.220000
       4.125000	      39.930000	     193.840000	       2.020000	      -0.140000	       0.000000	       0.250000	       1.210000
       4.126000	      38.830000	     188.450000	       1.820000	      -0.140000	       0.000000	       0.250000	       1.170000
       4.127000	      37.730000	     183.420000	       1.400000	      -0.140000	       0.000000	       0.250000	       1.060000
       4.128000	      36.850000	     178.800000	       1.420000	      -0.140000	       0.000000	       0.250000	       1.110000
       4.129000	      35.540000	     173.790000	       1.440000	      -0.140000	       0.000000	       0.250000	       1.100000
       4.130000	      34.440000	     168.780000	       1.460000	      -0.130000	       0.000000	       0.250000	       1.050000
       4.131000	      33.130000	     163.750000	       1.050000	      -0.140000	       0.000000	       0.250000	       0.970000
       4.132000	      32.250000	     157.970000	       1.060000	      -0.130000	       0.000000	       0.250000	       0.990000
       4.133000	      30.720000	     153.340000	       1.310000	      -0.140000	       0.000000	       0.250000	       0.940000
       4.134000	      29.620000	     147.170000	       0.890000	      -0.130000	       0.000000	       0.250000	       0.890000
       4.135000	      28.960000	     142.540000	       0.900000	      -0.130000	       0.000000	       0.250000	       0.870000
       4.136000	      27.640000	     137.930000	       0.700000	      -0.130000	       0.000000	       0.250000	       0.810000
       4.137000	      25.890000	     133.300000	       0.520000	      -0.130000	       0.000000	       0.250000	       0.900000
       4.138000	      24.790000	     128.270000	       0.320000	      -0.130000	       0.000000	       0.250000	       0.760000
       4.139000	      23.250000	     123.680000	      -0.090000	      -0.130000	       0.000000	       0.250000	       0.760000
       4.140000	      21.730000	     119.400000	       0.150000	      -0.130000	       0.000000	       0.250000	       0.760000
       4.141000	      20.410000	     114.400000	      -0.260000	      -0.130000	       0.000000	       0.250000	       0.700000
       4.142000	      18.870000	     110.160000	      -0.670000	      -0.130000	       0.000000	       0.250000	       0.740000
       4.143000	      17.120000	     105.540000	      -0.860000	      -0.130000	       0.000000	       0.250000	       0.610000
       4.144000	      15.150000	     102.840000	      -1.260000	      -0.130000	       0.000000	       0.250000	       0.560000
       4.145000	      13.180000	      98.220000	      -1.660000	      -0.130000	       0.000000	       0.250000	       0.530000
       4.146000	      11.870000	      94.360000	      -1.630000	      -0.130000	       0.000000	       0.250000	       0.520000
       4.147000	      10.990000	      91.660000	      -2.060000	      -0.130000	       0.000000	       0.250000	       0.440000
       4.148000	       9.460000	      87.820000	      -2.030000	      -0.130000	       0.000000	       0.250000	       0.470000
       4.149000	       8.140000	      84.340000	      -2.440000	      -0.130000	       0.000000	       0.250000	       0.480000
       4.150000	       7.260000	      80.100000	      -2.640000	      -0.120000	       0.000000	       0.250000	       0.360000
       4.151000	       5.510000	      77.010000	      -3.480000	      -0.120000	       0.000000	       0.250000	       0.350000
       4.152000	       3.750000	      74.320000	      -4.110000	      -0.120000	       0.000000	       0.250000	       0.300000
       4.153000	       2.650000	      71.240000	      -4.300000	      -0.120000	       0.000000	       0.240000	       0.320000
       4.154000	       2.430000	      68.530000	      -4.300000	      -0.120000	       0.000000	       0.250000	       0.290000
       4.155000	       1.780000	      65.820000	      -4.290000	      -0.120000	       0.000000	       0.250000	       0.290000
       4.156000	       0.890000	      63.880000	      -5.150000	      -0.120000	       0.000000	       0.250000	       0.220000
       4.157000	       0.230000	      60.420000	      -5.140000	      -0.120000	       0.000000	       0.250000	       0.190000
       4.158000	       0.240000	      58.090000	      -4.920000	      -0.120000	       0.000000	       0.250000	       0.260000
